<?xml version="1.0" encoding="UTF-8" standalone="no"?>
<!-- Created with Inkscape (http://www.inkscape.org/) -->

<svg
   xmlns:dc="http://purl.org/dc/elements/1.1/"
   xmlns:cc="http://creativecommons.org/ns#"
   xmlns:rdf="http://www.w3.org/1999/02/22-rdf-syntax-ns#"
   xmlns:svg="http://www.w3.org/2000/svg"
   xmlns="http://www.w3.org/2000/svg"
   xmlns:sodipodi="http://sodipodi.sourceforge.net/DTD/sodipodi-0.dtd"
   xmlns:inkscape="http://www.inkscape.org/namespaces/inkscape"
   id="svg7384"
   height="16.014"
   width="16.014"
   version="1.1"
   sodipodi:docname="mintreport-hardware-device-symbolic.svg"
   inkscape:version="0.92.3 (2405546, 2018-03-11)">
  <defs
     id="defs14" />
  <sodipodi:namedview
     pagecolor="#ffffff"
     bordercolor="#666666"
     borderopacity="1"
     objecttolerance="10"
     gridtolerance="10"
     guidetolerance="10"
     inkscape:pageopacity="0"
     inkscape:pageshadow="2"
     inkscape:window-width="2560"
     inkscape:window-height="1355"
     id="namedview12"
     showgrid="false"
     inkscape:zoom="14.737105"
     inkscape:cx="10.495175"
     inkscape:cy="-7.7195922"
     inkscape:window-x="0"
     inkscape:window-y="0"
     inkscape:window-maximized="1"
     inkscape:current-layer="layer10" />
  <metadata
     id="metadata90">
    <rdf:RDF>
      <cc:Work
         rdf:about="">
        <dc:format>image/svg+xml</dc:format>
        <dc:type
           rdf:resource="http://purl.org/dc/dcmitype/StillImage" />
        <dc:title>Gnome Symbolic Icon Theme</dc:title>
      </cc:Work>
    </rdf:RDF>
  </metadata>
  <title
     id="title9167">Gnome Symbolic Icon Theme</title>
  <g
     id="layer10"
     transform="translate(-301,-447)">
    <path
       id="path4781"
       style="block-progression:tb;text-indent:0;color:#000000;text-transform:none;fill:#bebebe"
       d="m313.91 448a1.0001 1.0001 0 0 0 -0.91 1v13a1.0001 1.0001 0 1 0 2 0v-12h1a1.0001 1.0001 0 1 0 0 -2h-2a1.0001 1.0001 0 0 0 -0.0937 0z" />
    <path
       id="rect5551"
       style="block-progression:tb;text-indent:0;color:#000000;enable-background:new;text-transform:none;fill:#bebebe"
       d="m314 453v0.5 2 0.5h0.5 2 0.5v-0.5-2-0.5h-0.5-2-0.5zm1 1h1v1h-1v-1z" />
    <path
       id="rect5551-4"
       style="block-progression:tb;text-indent:0;color:#000000;enable-background:new;text-transform:none;fill:#bebebe"
       d="m314 457v0.5 2 0.5h0.5 2 0.5v-0.5-2-0.5h-0.5-2-0.5zm1 1h1v1h-1v-1z" />
    <path
       id="path5571"
       style="color:#000000;text-indent:0;text-transform:none;fill:#bebebe"
       d="m 301,451 v 1 10 1 h 1 8 1 v -1 -1 h 1 v -2 h -1 -1 -1 v 1 1 h -6 v -8 h 2 l 6.94969,0.024 0.012,-2.05998 L 305,451 h -3 z"
       inkscape:connector-curvature="0"
       sodipodi:nodetypes="cccccccccccccccccccccccc" />
  </g>
</svg>
